<?xml version="1.0" standalone="no"?><!DOCTYPE svg PUBLIC "-//W3C//DTD SVG 1.1//EN" "http://www.w3.org/Graphics/SVG/1.1/DTD/svg11.dtd"><svg t="1672361289861" class="icon" viewBox="0 0 1024 1024" version="1.1" xmlns="http://www.w3.org/2000/svg" p-id="5063" xmlns:xlink="http://www.w3.org/1999/xlink" width="128" height="128"><path d="M704 1002.666667H320A298.666667 298.666667 0 0 1 21.333333 704v-170.666667h981.333334v170.666667a298.666667 298.666667 0 0 1-298.666667 298.666667z" fill="#F8FAFD" p-id="5064"></path><path d="M767.786667 197.546667L944 21.333333 1002.666667 80l-176.213334 176.213333z" fill="#FFBDC7" p-id="5065"></path><path d="M903.04 789.333333c48.853333 0 49.92-40.96 96.64-42.453333A298.88 298.88 0 0 1 704 1002.666667H320A298.901333 298.901333 0 0 1 24.32 746.666667H405.333333c49.706667 0 49.706667 42.666667 99.626667 42.666666s49.706667-42.666667 99.413333-42.666666 49.92 42.666667 99.626667 42.666666 49.706667-42.666667 99.626667-42.666666 49.706667 42.666667 99.413333 42.666666z" fill="#FFD0AA" p-id="5066"></path><path d="M826.453333 256.213333l-87.893333 88.106667-29.44-29.44-29.44-29.44 88.106667-87.893333 58.666666 58.666666z" fill="#A9DBEF" p-id="5067"></path><path d="M709.12 314.88c37.546667 37.546667 14.08 127.573333-23.893333 208.64a553.706667 553.706667 0 0 1-88.32 138.24 152.384 152.384 0 0 1-167.893334 29.226667 180.245333 180.245333 0 0 1-57.386666-38.613334c32.426667 32.64 117.76-0.213333 190.72-73.386666 113.493333-113.493333 179.2-231.68 146.773333-264.106667z" fill="#F8FAFD" p-id="5068"></path><path d="M709.12 314.88c32.426667 32.426667-33.28 150.613333-146.773333 264.106667-72.96 73.173333-158.293333 106.026667-190.72 73.386666z" fill="#F8FAFD" p-id="5069"></path><path d="M709.12 314.88L371.626667 652.373333c-32.64-32.426667 0.213333-117.76 73.386666-190.72 113.493333-113.493333 231.68-179.2 264.106667-146.773333z" fill="#F8FAFD" p-id="5070"></path><path d="M709.12 314.88c-32.426667-32.426667-150.613333 33.28-264.106667 146.773333-73.173333 72.96-106.026667 158.293333-73.386666 190.72-64.853333-64.853333-69.12-165.76-9.386667-225.28s282.026667-177.066667 346.88-112.213333z" fill="#F8FAFD" p-id="5071"></path><path d="M384 149.333333m-42.666667 0a42.666667 42.666667 0 1 0 85.333334 0 42.666667 42.666667 0 1 0-85.333334 0Z" fill="#FFD0AA" p-id="5072"></path><path d="M234.666667 277.333333m-64 0a64 64 0 1 0 128 0 64 64 0 1 0-128 0Z" fill="#FFD0AA" p-id="5073"></path><path d="M704 1024H320A321.429333 321.429333 0 0 1 3.2 749.696 332.8 332.8 0 0 1 0 704v-170.666667a21.333333 21.333333 0 0 1 21.333333-21.333333h234.666667v42.666667H42.666667v149.333333a288.853333 288.853333 0 0 0 2.794666 39.722667A278.485333 278.485333 0 0 0 320 981.333333h384a278.741333 278.741333 0 0 0 274.56-237.504A295.402667 295.402667 0 0 0 981.333333 704v-149.333333H746.666667v-42.666667h256a21.333333 21.333333 0 0 1 21.333333 21.333333v170.666667a339.733333 339.733333 0 0 1-3.178667 45.781333A321.685333 321.685333 0 0 1 704 1024z" fill="#2A3244" p-id="5074"></path><path d="M746.666667 597.333333h256v42.666667H746.666667zM738.56 365.653333a21.333333 21.333333 0 0 1-15.082667-6.250666l-58.88-58.88a21.333333 21.333333 0 0 1 0-30.186667l88.106667-87.893333L782.933333 212.650667l-72.981333 72.810666 28.672 28.672 72.725333-73.066666 30.208 30.122666-87.893333 88.106667a21.333333 21.333333 0 0 1-15.082667 6.272z" fill="#2A3244" p-id="5075"></path><path d="M826.453333 277.546667a21.333333 21.333333 0 0 1-15.082666-6.250667l-58.666667-58.666667a21.333333 21.333333 0 0 1 0-30.165333l176.213333-176.213333a21.333333 21.333333 0 0 1 30.165334 0l58.666666 58.666666a21.333333 21.333333 0 0 1 0 30.165334l-176.213333 176.213333a21.333333 21.333333 0 0 1-15.082667 6.250667zM797.866667 197.546667l28.586666 28.586666 146.048-146.133333-28.501333-28.501333zM492.8 725.333333a187.264 187.264 0 0 1-72.021333-14.634666 200.661333 200.661333 0 0 1-64.256-43.2 194.986667 194.986667 0 0 1-57.813334-136.533334 166.506667 166.506667 0 0 1 48.448-118.890666c46.933333-47.104 202.090667-137.344 304.490667-137.429334h0.149333a98.325333 98.325333 0 0 1 72.384 25.237334c52.970667 52.949333 10.432 168.533333-19.648 232.768a570.645333 570.645333 0 0 1-92.544 144.234666A166.954667 166.954667 0 0 1 492.8 725.333333z m159.018667-408.106666c-86.677333 0-231.786667 82.197333-274.368 124.928A124.309333 124.309333 0 0 0 341.333333 530.922667a152.128 152.128 0 0 0 45.312 106.368 158.229333 158.229333 0 0 0 50.602667 34.133333 131.2 131.2 0 0 0 144.469333-24.64 525.376 525.376 0 0 0 84.138667-132.266667c41.194667-87.957333 52.245333-160.362667 28.117333-184.469333a58.368 58.368 0 0 0-42.154666-12.821333z" fill="#2A3244" p-id="5076"></path><path d="M406.912 686.336h-0.106667a64.896 64.896 0 0 1-69.12-69.162667c0-48.469333 35.306667-113.834667 92.266667-170.666666 106.197333-106.197333 243.562667-197.44 294.250667-146.752 50.645333 50.709333-40.533333 188.074667-146.794667 294.272-56.704 56.96-122.048 92.309333-170.496 92.309333z m284.992-324.074667L410.624 643.541333c30.933333-1.877333 83.861333-26.709333 136.533333-79.616 88.170667-88.085333 131.242667-161.28 144.746667-201.664z m-30.186667-30.165333c-40.362667 13.44-113.536 56.576-201.621333 144.64-52.928 52.757333-77.76 105.706667-79.637333 136.533333zM234.666667 362.666667a85.333333 85.333333 0 1 1 85.333333-85.333334 85.333333 85.333333 0 0 1-85.333333 85.333334z m0-128a42.666667 42.666667 0 1 0 42.666666 42.666666 42.666667 42.666667 0 0 0-42.666666-42.666666zM384 213.333333a64 64 0 1 1 64-64 64 64 0 0 1-64 64z m0-85.333333a21.333333 21.333333 0 1 0 21.333333 21.333333 21.333333 21.333333 0 0 0-21.333333-21.333333zM903.04 810.666667a88.725333 88.725333 0 0 1-63.594667-26.474667 47.936 47.936 0 0 0-71.872 0 89.6 89.6 0 0 1-127.146666 0 47.936 47.936 0 0 0-71.872 0 89.856 89.856 0 0 1-127.402667 0A48.213333 48.213333 0 0 0 405.333333 768H21.333333v-42.666667h384a88.832 88.832 0 0 1 63.573334 26.432 47.936 47.936 0 0 0 71.872 0 89.856 89.856 0 0 1 127.402666 0 47.765333 47.765333 0 0 0 71.637334 0 89.856 89.856 0 0 1 127.402666 0 47.936 47.936 0 0 0 71.850667 0 89.301333 89.301333 0 0 1 58.56-26.176A38.4 38.4 0 0 1 1002.666667 725.333333v21.333334l-0.490667 21.333333a50.005333 50.005333 0 0 0-35.392 16.234667A89.152 89.152 0 0 1 903.04 810.666667zM768 853.333333h42.666667v42.666667h-42.666667zM704 896h42.666667v42.666667h-42.666667z" fill="#2A3244" p-id="5077"></path><path d="M576 810.666667h42.666667v42.666666h-42.666667zM618.666667 874.666667h42.666666v42.666666h-42.666666z" fill="#2A3244" p-id="5078"></path></svg>